<svg width="20" height="21" viewBox="0 0 20 21" fill="none" xmlns="http://www.w3.org/2000/svg">
<path fill-rule="evenodd" clip-rule="evenodd" d="M1.28259 11.747L15.6276 11.747L9.35459 18.023C9.10924 18.2566 8.97037 18.5807 8.97037 18.9195C8.97037 19.2583 9.10924 19.5823 9.35459 19.816C9.58826 20.0613 9.91227 20.2002 10.2511 20.2002C10.5899 20.2002 10.9139 20.0613 11.1476 19.816L19.4706 11.491C19.9838 10.9044 19.9838 10.0286 19.4706 9.44197L11.1456 1.11697C10.9119 0.871613 10.5879 0.732746 10.2491 0.732746C9.91027 0.732746 9.58626 0.871613 9.3526 1.11697H9.35259C9.10724 1.35064 8.96837 1.67465 8.96837 2.01347C8.96837 2.35229 9.10724 2.67631 9.35259 2.90997L15.6276 9.18497L1.28259 9.18497C0.936852 9.16401 0.598701 9.29223 0.353779 9.53715C0.108852 9.78208 -0.0193672 10.1202 0.00159454 10.466C-0.0193672 10.8117 0.108852 11.1499 0.353775 11.3948C0.598701 11.6397 0.936848 11.7679 1.28259 11.747Z" fill="#377DFF"/>
</svg>
